<?xml version="1.0" encoding="iso-8859-1"?>
<!-- Generator: Adobe Illustrator 16.0.4, SVG Export Plug-In . SVG Version: 6.00 Build 0)  -->
<!DOCTYPE svg PUBLIC "-//W3C//DTD SVG 1.1//EN" "http://www.w3.org/Graphics/SVG/1.1/DTD/svg11.dtd">
<svg version="1.1" xmlns="http://www.w3.org/2000/svg" xmlns:xlink="http://www.w3.org/1999/xlink" x="0px" y="0px"
	 width="1198.359px" height="794.912px" viewBox="0 0 1198.359 794.912" style="enable-background:new 0 0 1198.359 794.912;"
	 xml:space="preserve">
<g id="Layer_1">
</g>
<g id="TransbayTerminal">
	<polygon style="fill:#FFF450;" points="663.983,420.948 635.507,442.487 638.026,444.468 642.624,440.774 646.864,443.117 
		645.958,476.732 647.222,475.289 649.205,476.281 649.562,475.83 649.388,473.036 653.261,470.153 662.182,475.646 
		662.903,471.413 677.499,459.608 676.961,453.121 681.826,449.245 682.277,446.539 695.524,435.819 	"/>
	<polygon style="fill:#FFF450;" points="593.745,415.155 593.566,412.662 612.618,399.13 612.618,332.357 632.206,318.112 
		660.871,332.892 658.022,407.499 664.077,411.416 663.983,420.948 635.232,443.468 631.492,441.686 628.286,442.576 
		622.41,439.193 616.716,444.003 614.219,442.757 609.057,446.851 593.516,438.514 	"/>
	<polygon style="fill:#FFF450;" points="662.119,476.407 662.298,471.957 677.076,458.959 676.961,453.121 681.826,449.245 
		682.277,446.539 694.882,435.988 710.017,444.534 708.062,473.024 687.048,489.583 672.623,483.175 672.804,481.395 	"/>
</g>
<g id="_x35_42-550Howard">
	<path style="fill:#FFF450;" d="M304.077,587.698l-10.167-7.586l0.588-2.158l0.479-3.817l11.627-8.426l-18.899-103.197l3.934-7.839
		l-5.245-25.276l12.398-17.408l21.222,13.831l27.185,158.332l-12.595,9.126c0,0-9.795-2.401-16.378-3.039
		c-1.109-0.107-2.157-0.561-3.225-0.707c-0.702-0.1-2.352-11.809-2.352-11.809l-2.616-0.04l-1.101,1.479c0,0,1.67,9.643,1.589,9.643
		C307.681,588.762,304.077,587.698,304.077,587.698z"/>
	<path style="fill:#FFF450;" d="M314.849,589.446"/>
</g>
<g id="_x35_24Howard">
	<polygon style="fill:#FFF450;" points="345.156,515.814 337.98,469.296 339.309,468.231 338.245,466.374 338.512,464.777 
		337.181,461.855 338.512,460.525 336.386,458.135 337.713,456.806 335.854,453.88 336.386,452.286 336.119,450.957 
		335.055,449.629 336.65,449.629 336.119,448.033 334.258,445.374 335.587,444.045 344.892,437.932 349.677,440.324 
		354.992,437.397 374.664,449.629 389.019,549.838 387.954,550.37 387.954,554.891 379.981,559.677 375.194,529.902 
		369.348,525.117 368.814,519.272 354.194,510.233 	"/>
</g>
<g id="_x35_55Howard">
	<path style="fill:#FFF450;" d="M385.183,620.868l9.663-7.391l-1.683-3.651l-5.616-39.594l-6.458-3.371l-5.898-37.906l-5.896-4.214
		l-0.559-5.335l-14.043-9.265l-18.252,12.077l13.206,76.34c0,0,10.469,6.646,17.686,11.107
		C374.553,614.129,385.183,620.868,385.183,620.868z"/>
</g>
<g id="OceanwideCenter">
	<polygon style="fill:#FED4A0;" points="293.01,419.173 299.26,412.227 280.856,333.746 282.245,325.065 273.563,299.369 
		272.521,293.118 259.326,247.628 257.243,250.406 248.561,244.85 244.742,239.294 241.963,245.197 227.032,252.144 
		224.947,251.101 223.211,251.795 226.336,288.604 229.114,299.022 229.81,317.079 234.324,328.539 235.365,348.332 
		243.352,388.961 242.315,391.295 252.03,435.76 256.49,437.886 258.023,432.116 267.824,425.941 275.413,426.579 287.02,433.19 
		286.393,429.398 	"/>
</g>
<g id="_x31_60Folsom">
	<path style="fill:#FED4A0;" d="M771.956,390.229l2.744-4.463l2.491,0.034l6.004-48.424l-19.655-9.321l-12.968,10.334l-3.851,47.817
		l-7.903,6.484l-3.848-1.824l-11.955,19.049c0,0,4.864-1.219,10.335-0.204c5.468,1.014,11.955,3.444,11.955,3.444h1.822l1.215,0.812
		l-1.621,25.934l21.772-17.688L771.956,390.229z"/>
</g>
<g id="_x34_00Folsom">
	<polygon style="fill:#FED4A0;" points="603.621,552.237 608.831,553.771 613.918,549.577 614.125,544.671 615.554,543.852 
		615.554,539.146 616.58,537.306 616.372,530.35 606.348,525.237 594.072,517.464 582.004,527.078 581.187,504.367 577.095,501.503 
		578.322,500.074 577.912,448.521 564.819,440.134 538.225,451.59 537.204,453.02 537.813,479.82 538.635,504.162 540.476,505.802 
		538.84,507.029 539.248,518.689 542.113,520.326 542.727,537.509 541.91,539.557 542.113,554.49 542.932,555.925 543.135,570.244 
		544.978,572.085 556.841,578.629 557.456,581.083 566.867,586.814 585.78,571.598 585.539,558.217 585.23,557.601 584.618,545.188 
		602.395,546.262 	"/>
</g>
<g id="_x35_00Folsom">
	<path style="fill:#FED4A0;" d="M498.666,643.776l-3.893-2.747l1.146-5.498l-0.46-2.289l-0.918-14.439l1.146-8.018l1.837-2.062
		l5.957-4.354l-0.461-8.71l1.378-2.977l-1.835-12.375l-1.602-1.604l-0.461-16.957l0.916-2.063l-0.687-13.516l-1.832-1.149
		l-1.146-17.412l7.104-5.729l-0.457,4.124l1.603-0.687l0.916-4.355l13.29-11.459l0.231,4.585l3.665-1.603l-0.459-2.982l3.393,1.98
		l15.855,9.25l-0.459,17.645l-1.144,2.75l0.457,13.747l1.146,1.376l-0.228,13.976c0,0-0.688,6.876,0.228,6.876
		c0.915,0,7.79,5.957,7.79,5.957l0.687,13.522l-1.373,0.457l3.21,2.977L498.666,643.776z"/>
</g>
<g id="ParkTowerTransbay">
	<path style="fill:#FED4A0;" d="M544.805,379.92l-2.263-1.738l2.61-2.26l-0.521-2.611l-2.608-1.911l2.954-2.088l-0.173-2.435
		l-2.434-2.261l2.434-2.609l-0.521-2.957l-2.609-1.392l3.131-2.956v-3.305l4.699-2.609l-3.829-48.178l17.219-5.392l21.394,11.306
		l0.346,3.999l5.045,3.479l-5.22,3.654l4.697,3.304l-3.998,4l3.998,3.305l-3.998,3.827l4.695,3.478l-5.22,3.478l5.045,3.305
		l-5.391,4.002l5.043,3.826l-0.348,34.265l7.654,2.956c0,0-0.178,15.132,0,16c0.081,0.422-1.752,1.702-3.668,2.908l-5.132-2.562
		c0,0-6.741-3.525-12.721-3.371c-5.976,0.154-6.892,0.307-9.655,0.92c-2.757,0.612-6.281,1.686-6.281,1.686l-1.687-0.154
		l-3.064,1.84h-2.143l-3.221,3.063l-0.613-22.832l-0.305-0.767l-0.614-2.912L544.805,379.92z"/>
</g>
<g id="NatalieGubbCommons">
	<polygon style="fill:#FED4A0;" points="606.182,468.906 578.311,491.905 578.311,499.426 576.985,502.08 581.406,503.848 
		581.406,507.387 593.796,514.022 605.738,505.619 	"/>
	<polygon style="fill:#FED4A0;" points="662.928,510.861 659.096,508.872 658.378,508.203 658.637,498.203 651.444,493.846 
		651.225,492.754 645.343,490.138 646.11,476.244 647.535,474.533 650.105,475.103 650.105,473.107 652.671,470.535 664.085,477.1 
		673.22,480.523 673.22,486.65 668.289,490.174 667.063,490.787 663.691,493.854 	"/>
</g>
<g id="_x33_3Tehama">
	<polygon style="fill:#FED4A0;" points="396.977,622.5 409.641,631.188 417.887,625.448 419.652,626.917 457.788,596.439 
		456.904,590.695 442.918,580.391 439.823,582.453 433.347,522.523 420.242,513.541 396.388,530.918 398.449,544.904 
		387.259,551.235 	"/>
</g>
<g id="SalesforceTower">
	<path style="fill:#FED4A0;" d="M354.73,436.487c0,0-10.428-72.982-13.635-95.439c-3.208-22.456-6.684-65.229-6.148-77.794
		c0.535-12.565,3.742-34.488,3.742-34.488s11.765-11.227,15.506-9.623c0,0,11.229,2.406,13.637,6.951
		c2.405,4.545,13.366,36.892,15.771,46.517c2.408,9.625,8.02,44.646,8.02,44.646l10.158,79.398l4.543,37.16l2.676,1.069
		l-0.534,3.208l0.075,1.089c0,0-9.486,6.533-12.08,8.296c-2.591,1.762-10.836,6.582-12.132,7.155
		c-1.296,0.569-2.332,1.345-3.421,1.968c-1.09,0.624-4.356,2.748-4.356,2.748l-1.349-9.228L354.73,436.487z"/>
</g>
<g id="_x31_81Fremont">
	<polygon style="fill:#FED4A0;" points="516.759,444.356 513.9,393.848 510.397,348.816 504.394,301.031 487.13,297.778 
		471.118,296.778 468.117,283.769 472.872,347.065 473.119,355.57 474.121,387.094 477.618,442.521 487.771,448.035 
		492.827,453.092 489.916,454.778 498.805,460.906 503.4,457.842 502.941,453.857 	"/>
</g>
<g id="TransbayTransitCenter">
	<path style="fill:#FED4A0;" d="M305.089,556.619l-55.245,38.717l-4.132-3.482c0,0-4.645,0.707-7.907-3.208
		s-6.158-7.219-6.158-7.219s-7.562-0.491-11.042-6.585c-3.48-6.089-1.644-8.87,3.141-11.698c4.785-2.826,7.526-2.42,9.303-3.903
		c1.778-1.479,6.811-7.552,10.363-9.624c3.554-2.07,10.069-3.999,11.106-4.887c1.036-0.886,5.33-5.478,7.402-6.662
		c2.073-1.183,6.219-2.521,8.144-3.405c1.925-0.886,5.183-6.516,10.217-9.03c5.033-2.52,9.179-3.851,9.179-3.851
		s3.258-4.443,5.183-5.626c1.924-1.185,3.109-1.926,3.109-1.926L305.089,556.619z"/>
	<polygon style="fill:#FED4A0;" points="331.214,491.872 336.543,521.336 345.427,515.857 340.393,486.988 	"/>
	<path style="fill:#FED4A0;" d="M395.638,490.093c3.157-2.828,7.625-6.664,8.866-5.921c1.479,0.891,2.666,2.223,2.666,2.223
		l11.252-7.667l-0.533-3.877l13.642-9.96l-0.154-4.444l-2.604-0.919l35.4-24.363l5.514,1.531l4.601,3.952l3.065-2.224l-3.407-43.825
		c0,0-2.812,1.774-4.145,3.553c-1.333,1.776-3.702,3.997-3.702,3.997s-5.773,1.775-7.106,3.258
		c-1.329,1.479-5.181,5.181-5.181,5.181s-5.48,1.481-7.997,3.258c-2.516,1.778-8.586,8.145-8.586,8.145s-5.923,2.071-7.404,2.96
		c-1.479,0.889-5.626,5.184-5.626,5.184s-5.183,1.626-7.994,3.256c-2.816,1.628-7.997,6.07-7.997,6.07s-8.144,5.627-11.402,7.848
		c-3.255,2.221-10.809,6.513-13.62,7.996c-2.812,1.482-6.365,4.145-6.365,4.145l4.841,33.346l7.115-5.683L395.638,490.093z"/>
	<path style="fill:#FED4A0;" d="M513.15,394.85l1.502,13.008c0,0,4.502-5.004,3.998-7.754
		C518.154,397.351,513.15,394.85,513.15,394.85z"/>
</g>
<g id="Lumina">
	<path style="fill:#B8D098;" d="M740.746,520.916l-14.411-8.268v-1.593c0,0-3.581-0.796-5.973-1.989
		c-2.386-1.194-10.746-6.369-10.746-6.369l-3.582-2.785l5.972-83.199c0,0,8.37-5.835,19.118-5.041
		c10.75,0.799,16.644,4.118,16.644,4.118l-3.118,36.752c0,0,1.188-0.397,4.772,0.398c3.586,0.794,7.168,2.784,9.556,4.376
		c2.389,1.594,7.165,3.981,7.165,3.981l0.398-12.74l2.786-2.386l2.785-17.118l0.796-2.388c0,0,0.398-3.584,2.392-5.573
		c1.987-1.991,3.182-3.583,3.182-3.583l2.39-5.573c0,0,5.177-3.98,11.148,2.787c5.971,6.766,5.572,9.552,5.572,9.552
		s2.386,1.196,3.98,3.982c1.591,2.789,0.398,2.789,0.398,2.789l-1.195,15.922l0.398,2.388l-4.131,36.045l-7.618,6.026l-0.366,2.302
		l-6.93,6.062l-1.518-1.048l-2.698,1.717c0,0-3.678-1.965-6.624-2.944c-2.945-0.983-7.606-1.963-7.606-1.963
		s-4.906,4.661-5.398,5.888c-0.487,1.228-2.698,2.698-2.698,2.698l-4.169-1.962l-2.944,1.962L747,503.648l-5.15,5.398
		L740.746,520.916z"/>
</g>
<g id="Solaire">
	<polygon style="fill:#B8D098;" points="658.378,508.203 658.951,512.486 633.961,532.819 632.596,531.909 630.29,534.272 
		628.22,533.1 626.757,534.524 625.052,533.372 622.996,532.178 622.711,530.179 619.001,528.468 619.001,529.605 602.447,519.617 
		602.447,511.625 606.161,508.203 606.729,449.135 615.578,442.86 617.002,443.429 623.854,438.577 628.418,441.717 
		630.984,440.861 638.404,443.999 642.686,440.576 646.966,442.572 646.11,476.244 645.561,490.138 651.005,493.189 
		651.444,494.497 657.547,497.983 	"/>
</g>
<g id="_x33_50Mission">
	<polygon style="fill:#B8D098;" points="417.988,392.431 403.283,400.983 391.27,315.383 388.866,300.665 395.175,297.662 
		409.238,304.938 	"/>
</g>
<g id="_x35_35Mission">
	<polygon style="fill:#B8D098;" points="287.491,517.086 271.142,505.619 270.91,504.875 256.547,436.681 258.023,432.116 
		267.824,425.941 276.549,426.342 287.02,433.19 291.638,454.675 287.557,462.053 296.551,515.076 288.555,522.182 	"/>
</g>
<g id="ReneCazaneve">
	<polygon style="fill:#B8D098;" points="533.878,665.252 534.645,677.17 531.328,680.226 520.435,673.537 516.546,677.104 
		526.168,684.242 518.833,692.932 506.851,685.575 506.73,682.131 505.19,684.265 498.782,680.587 491.067,675.841 489.881,656.973 
		495.934,652.342 497.24,652.765 497.876,651.232 503.357,646.328 504.376,646.775 506.033,645.115 505.971,643.906 
		511.958,638.811 513.104,639.574 514.508,638.238 514.699,636.706 520.053,631.928 526.426,636.068 526.487,637.537 
		527.954,637.283 534.263,641.55 534.263,655.377 	"/>
</g>
<g id="frame">
	
		<rect x="0.259" y="0.254" style="fill:none;stroke:#F8F8F9;stroke-width:0.25;stroke-miterlimit:10;" width="1197.985" height="794.528"/>
</g>
</svg>
