<?xml version="1.0" encoding="iso-8859-1"?>
<!-- Generator: Adobe Illustrator 16.0.4, SVG Export Plug-In . SVG Version: 6.00 Build 0)  -->
<!DOCTYPE svg PUBLIC "-//W3C//DTD SVG 1.1//EN" "http://www.w3.org/Graphics/SVG/1.1/DTD/svg11.dtd">
<svg version="1.1" xmlns="http://www.w3.org/2000/svg" xmlns:xlink="http://www.w3.org/1999/xlink" x="0px" y="0px"
	 width="576.07px" height="382.135px" viewBox="0 0 576.07 382.135" style="enable-background:new 0 0 576.07 382.135;"
	 xml:space="preserve">
<g id="TransbayTerminal">
	<polygon style="fill:#FFF450;" points="319.149,202.332 305.461,212.685 306.672,213.637 308.882,211.861 310.92,212.987
		310.485,229.145 311.092,228.451 312.045,228.928 312.217,228.711 312.133,227.368 313.995,225.982 318.283,228.623
		318.629,226.588 325.645,220.914 325.386,217.796 327.725,215.933 327.942,214.632 334.309,209.479 	"/>
	<polygon style="fill:#FFF450;" points="285.388,199.547 285.302,198.349 294.459,191.845 294.459,159.75 303.875,152.903
		317.653,160.007 316.284,195.867 319.194,197.75 319.149,202.332 305.33,213.156 303.532,212.299 301.991,212.728 299.167,211.102
		296.429,213.413 295.229,212.814 292.748,214.782 285.278,210.774 	"/>
	<polygon style="fill:#FFF450;" points="318.252,228.988 318.338,226.85 325.442,220.602 325.386,217.796 327.725,215.933
		327.942,214.632 334,209.561 341.275,213.668 340.335,227.362 330.235,235.321 323.301,232.241 323.388,231.386 	"/>
</g>
<g id="_x35_42-550Howard">
	<path style="fill:#FFF450;" d="M146.157,282.481l-4.887-3.646l0.283-1.037l0.23-1.835l5.588-4.05l-9.084-49.603l1.891-3.768
		l-2.521-12.149l5.959-8.368l10.2,6.648l13.066,76.104l-6.054,4.387c0,0-4.708-1.154-7.872-1.461c-0.533-0.052-1.037-0.27-1.55-0.34
		c-0.337-0.048-1.13-5.676-1.13-5.676l-1.258-0.02l-0.529,0.711c0,0,0.803,4.635,0.764,4.635
		C147.889,282.992,146.157,282.481,146.157,282.481z"/>
	<path style="fill:#FFF450;" d="M151.334,283.321"/>
</g>
<g id="_x35_24Howard">
	<polygon style="fill:#FFF450;" points="165.902,247.93 162.453,225.57 163.091,225.059 162.581,224.166 162.708,223.398
		162.069,221.994 162.708,221.355 161.687,220.206 162.325,219.567 161.431,218.161 161.687,217.395 161.559,216.755
		161.047,216.117 161.814,216.117 161.559,215.35 160.664,214.072 161.303,213.433 165.775,210.495 168.075,211.645 170.63,210.238
		180.085,216.117 186.985,264.283 186.473,264.539 186.473,266.712 182.641,269.013 180.34,254.701 177.53,252.401 177.274,249.592
		170.247,245.247 	"/>
</g>
<g id="_x35_55Howard">
	<path style="fill:#FFF450;" d="M185.141,298.425l4.645-3.553l-0.809-1.755l-2.699-19.031l-3.104-1.62l-2.835-18.22l-2.834-2.025
		l-0.269-2.564l-6.75-4.453l-8.773,5.805l6.348,36.693c0,0,5.032,3.194,8.5,5.339C180.032,295.186,185.141,298.425,185.141,298.425z
		"/>
</g>
<g id="OceanwideCenter">
	<polygon style="fill:#FED4A0;" points="140.838,201.479 143.842,198.14 134.996,160.417 135.664,156.245 131.491,143.894
		130.99,140.889 124.647,119.024 123.646,120.359 119.473,117.688 117.638,115.018 116.302,117.856 109.125,121.194
		108.123,120.693 107.289,121.027 108.791,138.72 110.126,143.727 110.46,152.406 112.63,157.915 113.13,167.428 116.969,186.957
		116.471,188.079 121.141,209.451 123.284,210.473 124.021,207.7 128.732,204.732 132.38,205.038 137.958,208.216 137.657,206.394
		"/>
</g>
<g id="_x31_60Folsom">
	<path style="fill:#FED4A0;" d="M371.046,187.566l1.319-2.145l1.197,0.017l2.886-23.275l-9.447-4.48l-6.233,4.967l-1.851,22.984
		l-3.799,3.117l-1.85-0.877l-5.746,9.156c0,0,2.338-0.585,4.968-0.098c2.628,0.487,5.746,1.655,5.746,1.655h0.876l0.584,0.39
		l-0.779,12.465l10.465-8.501L371.046,187.566z"/>
</g>
<g id="_x34_00Folsom">
	<polygon style="fill:#FED4A0;" points="290.135,265.437 292.639,266.174 295.084,264.158 295.184,261.8 295.871,261.406
		295.871,259.145 296.364,258.26 296.264,254.916 291.446,252.459 285.545,248.723 279.745,253.344 279.352,242.428
		277.385,241.051 277.975,240.364 277.778,215.584 271.485,211.553 258.702,217.06 258.211,217.747 258.504,230.629
		258.899,242.329 259.784,243.117 258.998,243.707 259.194,249.312 260.571,250.099 260.866,258.357 260.473,259.342
		260.571,266.52 260.964,267.209 261.062,274.092 261.948,274.977 267.65,278.122 267.946,279.302 272.469,282.057 281.56,274.742
		281.444,268.311 281.295,268.015 281.001,262.049 289.545,262.564 	"/>
</g>
<g id="_x35_00Folsom">
	<path style="fill:#FED4A0;" d="M239.688,309.436l-1.871-1.32l0.551-2.643l-0.221-1.101l-0.441-6.94l0.551-3.854l0.883-0.991
		l2.863-2.093l-0.222-4.187l0.662-1.431l-0.882-5.948l-0.77-0.771l-0.222-8.15l0.44-0.992l-0.33-6.496l-0.881-0.553l-0.551-8.369
		l3.414-2.754l-0.22,1.982l0.771-0.33l0.44-2.094l6.388-5.508l0.111,2.204l1.762-0.771l-0.221-1.434l1.631,0.952l7.621,4.446
		l-0.221,8.48l-0.55,1.322l0.22,6.607l0.551,0.661l-0.109,6.718c0,0-0.331,3.305,0.109,3.305c0.439,0,3.744,2.863,3.744,2.863
		l0.33,6.5l-0.66,0.22l1.543,1.431L239.688,309.436z"/>
</g>
<g id="ParkTowerTransbay">
	<path style="fill:#FED4A0;" d="M261.865,182.611l-1.088-0.835l1.255-1.086l-0.25-1.255l-1.254-0.919l1.42-1.003l-0.083-1.17
		l-1.17-1.086l1.17-1.254l-0.251-1.421l-1.254-0.668l1.505-1.421v-1.588l2.259-1.254l-1.841-23.157l8.276-2.591l10.283,5.434
		l0.166,1.922l2.425,1.672l-2.509,1.756l2.258,1.588l-1.922,1.923l1.922,1.588l-1.922,1.839l2.257,1.672l-2.509,1.671l2.425,1.588
		l-2.591,1.923l2.424,1.839l-0.167,16.469l3.679,1.421c0,0-0.085,7.273,0,7.691c0.039,0.203-0.842,0.818-1.763,1.397l-2.467-1.231
		c0,0-3.24-1.695-6.114-1.621c-2.872,0.074-3.312,0.147-4.641,0.442c-1.325,0.294-3.02,0.81-3.02,0.81l-0.811-0.074l-1.473,0.884
		h-1.03l-1.548,1.473l-0.295-10.975l-0.146-0.368l-0.295-1.4L261.865,182.611z"/>
</g>
<g id="NatalieGubbCommons">
	<polygon style="fill:#FED4A0;" points="291.366,225.383 277.969,236.438 277.969,240.053 277.333,241.328 279.458,242.178
		279.458,243.879 285.413,247.068 291.153,243.029 	"/>
	<polygon style="fill:#FED4A0;" points="318.641,245.549 316.799,244.593 316.455,244.271 316.579,239.465 313.122,237.37
		313.016,236.846 310.189,235.588 310.558,228.91 311.243,228.088 312.478,228.361 312.478,227.402 313.711,226.166
		319.198,229.321 323.588,230.967 323.588,233.912 321.218,235.605 320.629,235.9 319.008,237.374 	"/>
</g>
<g id="_x33_3Tehama">
	<polygon style="fill:#FED4A0;" points="190.81,299.209 196.897,303.385 200.861,300.626 201.709,301.332 220.04,286.683
		219.615,283.922 212.892,278.969 211.405,279.96 208.292,251.154 201.993,246.837 190.527,255.189 191.518,261.912
		186.139,264.955 	"/>
</g>
<g id="SalesforceTower">
	<path style="fill:#FED4A0;" d="M170.504,209.801c0,0-5.012-35.08-6.553-45.874c-1.542-10.794-3.213-31.353-2.956-37.393
		s1.799-16.577,1.799-16.577s5.655-5.396,7.453-4.625c0,0,5.397,1.157,6.554,3.341c1.156,2.185,6.425,17.732,7.581,22.359
		c1.157,4.626,3.854,21.459,3.854,21.459l4.883,38.164l2.184,17.861l1.286,0.514l-0.257,1.542l0.036,0.523
		c0,0-4.56,3.14-5.807,3.987c-1.245,0.847-5.208,3.164-5.831,3.439c-0.623,0.273-1.121,0.646-1.645,0.946
		c-0.523,0.3-2.094,1.321-2.094,1.321l-0.648-4.435L170.504,209.801z"/>
</g>
<g id="_x31_81Fremont">
	<polygon style="fill:#FED4A0;" points="248.384,213.583 247.01,189.306 245.327,167.661 242.441,144.693 234.143,143.129
		226.447,142.648 225.004,136.396 227.29,166.819 227.409,170.907 227.89,186.059 229.571,212.701 234.451,215.351 236.881,217.782
		235.482,218.592 239.754,221.538 241.963,220.065 241.743,218.15 	"/>
</g>
<g id="TransbayTransitCenter">
	<path style="fill:#FED4A0;" d="M146.644,267.543l-26.554,18.609l-1.986-1.674c0,0-2.232,0.34-3.801-1.542
		c-1.568-1.882-2.96-3.47-2.96-3.47s-3.635-0.236-5.307-3.165c-1.673-2.927-0.79-4.264,1.509-5.623
		c2.3-1.358,3.618-1.163,4.472-1.876c0.854-0.711,3.273-3.63,4.981-4.626c1.708-0.995,4.84-1.922,5.338-2.349
		c0.498-0.426,2.562-2.633,3.558-3.202c0.997-0.568,2.989-1.212,3.915-1.637c0.925-0.426,2.491-3.132,4.911-4.341
		c2.419-1.211,4.412-1.851,4.412-1.851s1.566-2.136,2.491-2.704c0.925-0.569,1.495-0.926,1.495-0.926L146.644,267.543z"/>
	<polygon style="fill:#FED4A0;" points="159.201,236.422 161.762,250.584 166.032,247.95 163.612,234.074 	"/>
	<path style="fill:#FED4A0;" d="M190.167,235.566c1.518-1.359,3.665-3.203,4.262-2.846c0.711,0.428,1.281,1.068,1.281,1.068
		l5.408-3.686l-0.256-1.863l6.557-4.787l-0.074-2.136l-1.252-0.442l17.016-11.71l2.65,0.736l2.211,1.9l1.474-1.069l-1.638-21.065
		c0,0-1.352,0.853-1.992,1.708c-0.641,0.854-1.779,1.921-1.779,1.921s-2.775,0.854-3.416,1.566c-0.639,0.711-2.49,2.49-2.49,2.49
		s-2.634,0.712-3.844,1.566c-1.209,0.854-4.127,3.915-4.127,3.915s-2.847,0.996-3.559,1.423c-0.711,0.427-2.704,2.492-2.704,2.492
		s-2.491,0.781-3.843,1.565c-1.354,0.782-3.844,2.917-3.844,2.917s-3.914,2.705-5.48,3.772c-1.564,1.067-5.195,3.13-6.547,3.843
		s-3.06,1.992-3.06,1.992l2.327,16.028l3.42-2.731L190.167,235.566z"/>
	<path style="fill:#FED4A0;" d="M246.65,189.787l0.722,6.252c0,0,2.164-2.405,1.922-3.727
		C249.055,190.989,246.65,189.787,246.65,189.787z"/>
</g>
<g id="Lumina">
	<path style="fill:#B8D098;" d="M356.045,250.382l-6.927-3.974v-0.766c0,0-1.722-0.383-2.871-0.956
		c-1.146-0.574-5.165-3.062-5.165-3.062l-1.722-1.339l2.87-39.99c0,0,4.023-2.805,9.189-2.423c5.167,0.384,8,1.979,8,1.979
		l-1.499,17.665c0,0,0.571-0.191,2.294,0.191c1.724,0.381,3.445,1.338,4.593,2.104c1.148,0.766,3.444,1.914,3.444,1.914l0.191-6.124
		l1.339-1.147l1.339-8.228l0.383-1.147c0,0,0.191-1.723,1.149-2.679c0.955-0.957,1.529-1.722,1.529-1.722l1.148-2.679
		c0,0,2.488-1.913,5.358,1.34c2.87,3.252,2.679,4.591,2.679,4.591s1.146,0.575,1.913,1.914c0.765,1.34,0.191,1.34,0.191,1.34
		l-0.574,7.653l0.191,1.148l-1.985,17.325l-3.662,2.896l-0.176,1.106l-3.331,2.914l-0.729-0.504l-1.297,0.825
		c0,0-1.768-0.944-3.184-1.415c-1.416-0.473-3.656-0.943-3.656-0.943s-2.358,2.24-2.595,2.83c-0.234,0.59-1.297,1.297-1.297,1.297
		l-2.004-0.943l-1.415,0.943l-0.708-0.236l-2.476,2.595L356.045,250.382z"/>
</g>
<g id="Solaire">
	<polygon style="fill:#B8D098;" points="316.455,244.271 316.73,246.33 304.718,256.104 304.062,255.666 302.954,256.802
		301.958,256.238 301.255,256.923 300.436,256.369 299.448,255.795 299.311,254.834 297.528,254.012 297.528,254.559
		289.571,249.758 289.571,245.916 291.356,244.271 291.629,215.88 295.882,212.864 296.567,213.137 299.86,210.805 302.054,212.314
		303.288,211.903 306.854,213.411 308.912,211.766 310.969,212.726 310.558,228.91 310.293,235.588 312.911,237.055
		313.122,237.684 316.055,239.359 	"/>
</g>
<g id="_x33_50Mission">
	<polygon style="fill:#B8D098;" points="200.91,188.625 193.841,192.735 188.067,151.591 186.912,144.517 189.944,143.073
		196.704,146.571 	"/>
</g>
<g id="_x35_35Mission">
	<polygon style="fill:#B8D098;" points="138.185,248.541 130.327,243.029 130.215,242.672 123.312,209.894 124.021,207.7
		128.732,204.732 132.926,204.924 137.958,208.216 140.178,218.542 138.217,222.089 142.54,247.575 138.696,250.99 	"/>
</g>
<g id="ReneCazaneve">
	<polygon style="fill:#B8D098;" points="256.613,319.758 256.981,325.486 255.387,326.955 250.151,323.74 248.282,325.455
		252.907,328.886 249.381,333.062 243.622,329.526 243.564,327.871 242.824,328.896 239.744,327.129 236.036,324.848
		235.465,315.778 238.375,313.553 239.002,313.756 239.308,313.02 241.943,310.662 242.432,310.877 243.229,310.079
		243.199,309.498 246.077,307.049 246.627,307.416 247.302,306.773 247.394,306.037 249.967,303.74 253.031,305.73 253.06,306.437
		253.765,306.314 256.797,308.365 256.797,315.012 	"/>
</g>
<g id="frame">

		<rect x="0.125" y="0.122" style="fill:none;stroke:#F8F8F9;stroke-width:0.25;stroke-miterlimit:10;" width="575.82" height="381.896"/>
</g>
</svg>
